<svg width="46" height="46" viewBox="0 0 46 46" fill="none" xmlns="http://www.w3.org/2000/svg">
<path d="M45.5316 22.9417C45.4911 10.5397 35.4223 0.500244 23.0181 0.500244C10.6093 0.500244 0.542811 10.5397 0.502311 22.9417L0.500061 22.8832V23.1352L0.502311 23.0835C0.540561 35.4877 10.6071 45.5317 23.0181 45.5317C35.4246 45.5317 45.4911 35.4922 45.5316 23.0902L45.5338 23.1487V23.0272V23.016V22.8832L45.5316 22.9417ZM16.8823 33.2535C11.2371 33.2535 6.64931 28.6657 6.64931 23.0182C6.64931 17.3707 11.2371 12.783 16.8823 12.783C19.6498 12.783 21.9628 13.7977 23.7358 15.456L20.8221 18.2797C20.0908 17.5845 18.7993 16.7655 16.8823 16.7655C13.4961 16.7655 10.7331 19.5802 10.7331 23.0317C10.7331 26.481 13.4983 29.2957 16.8823 29.2957C20.8018 29.2957 22.2463 26.5822 22.5118 24.9757H16.8778V21.1552H26.4516C26.6001 21.7987 26.7103 22.4017 26.7103 23.2522C26.7103 29.0955 22.7908 33.2535 16.8823 33.2535ZM40.4128 24.0397H36.3201V28.1325H33.2511V24.0397H29.1561V20.9707H33.2511V16.8757H36.3201V20.9707H40.4128V24.0397Z" fill="white"/>
</svg>
