<svg width="180" height="90" viewBox="0 0 180 90" fill="none" xmlns="http://www.w3.org/2000/svg">
<path d="M22.5 45C10.0748 45 0 55.0748 0 67.5C0 79.9252 10.0748 90 22.5 90C34.9252 90 45 79.9252 45 67.5C45 55.0748 34.9252 45 22.5 45ZM33.3131 61.9604C33.3281 62.1964 33.3281 62.4425 33.3281 62.6836C33.3281 70.0564 27.7132 78.5491 17.4526 78.5491C14.2885 78.5491 11.3555 77.63 8.88449 76.048C9.33649 76.0982 9.76842 76.1183 10.2305 76.1183C12.8421 76.1183 15.2427 75.2344 17.1562 73.7377C14.7054 73.6875 12.6462 72.0804 11.9431 69.8705C12.8019 69.9961 13.5753 69.9961 14.4593 69.7701C13.1973 69.5137 12.063 68.8283 11.2491 67.8304C10.4352 66.8324 9.99184 65.5835 9.99442 64.2958V64.2254C10.7327 64.6423 11.6016 64.8984 12.5106 64.9336C11.7464 64.4243 11.1197 63.7343 10.686 62.9248C10.2524 62.1153 10.0252 61.2113 10.0246 60.293C10.0246 59.2533 10.2958 58.3041 10.7829 57.4805C12.1837 59.2048 13.9316 60.6151 15.913 61.6197C17.8945 62.6243 20.0652 63.2007 22.284 63.3114C21.4955 59.5195 24.3281 56.4509 27.7333 56.4509C29.3404 56.4509 30.7868 57.1239 31.8064 58.2087C33.067 57.9727 34.2723 57.5006 35.3471 56.8677C34.9302 58.1585 34.0564 59.2483 32.8962 59.9364C34.0212 59.8158 35.106 59.5045 36.1105 59.0675C35.3521 60.1825 34.4029 61.1719 33.3131 61.9604V61.9604Z" fill="#D3D3D3"/>
<path d="M22.5 0C10.0748 0 0 10.0748 0 22.5C0 34.9252 10.0748 45 22.5 45C34.9252 45 45 34.9252 45 22.5C45 10.0748 34.9252 0 22.5 0ZM33.3131 16.9604C33.3281 17.1964 33.3281 17.4425 33.3281 17.6836C33.3281 25.0564 27.7132 33.5491 17.4526 33.5491C14.2885 33.5491 11.3555 32.63 8.88449 31.048C9.33649 31.0982 9.76842 31.1183 10.2305 31.1183C12.8421 31.1183 15.2427 30.2344 17.1562 28.7377C14.7054 28.6875 12.6462 27.0804 11.9431 24.8705C12.8019 24.9961 13.5753 24.9961 14.4593 24.7701C13.1973 24.5137 12.063 23.8283 11.2491 22.8304C10.4352 21.8324 9.99184 20.5835 9.99442 19.2958V19.2254C10.7327 19.6423 11.6016 19.8984 12.5106 19.9336C11.7464 19.4243 11.1197 18.7343 10.686 17.9248C10.2524 17.1153 10.0252 16.2113 10.0246 15.293C10.0246 14.2533 10.2958 13.3041 10.7829 12.4805C12.1837 14.2048 13.9316 15.6151 15.913 16.6197C17.8945 17.6243 20.0652 18.2007 22.284 18.3114C21.4955 14.5195 24.3281 11.4509 27.7333 11.4509C29.3404 11.4509 30.7868 12.1239 31.8064 13.2087C33.067 12.9727 34.2723 12.5006 35.3471 11.8677C34.9302 13.1585 34.0564 14.2483 32.8962 14.9364C34.0212 14.8158 35.106 14.5045 36.1105 14.0675C35.3521 15.1825 34.4029 16.1719 33.3131 16.9604V16.9604Z" fill="white"/>
<path d="M67.5 45C55.0734 45 45 55.0734 45 67.5C45 79.9266 55.0734 90 67.5 90C79.9266 90 90 79.9266 90 67.5C90 55.0734 79.9266 45 67.5 45ZM76.1531 70.3852C76.1531 70.3852 78.143 72.3492 78.6328 73.2609C78.6469 73.2797 78.6539 73.2984 78.6586 73.3078C78.8578 73.643 78.9047 73.9031 78.8063 74.0977C78.6422 74.4211 78.0797 74.5805 77.8875 74.5945H74.3719C74.1281 74.5945 73.6172 74.5313 72.9984 74.1047C72.5227 73.7719 72.0539 73.2258 71.5969 72.6937C70.9148 71.9016 70.3242 71.2172 69.7289 71.2172C69.6533 71.2171 69.5781 71.2289 69.5063 71.2523C69.0563 71.3977 68.4797 72.0398 68.4797 73.7508C68.4797 74.2852 68.0578 74.5922 67.7602 74.5922H66.15C65.6016 74.5922 62.7445 74.4 60.2133 71.7305C57.1148 68.4609 54.3258 61.9031 54.3023 61.8422C54.1266 61.418 54.4898 61.1906 54.8859 61.1906H58.4367C58.9102 61.1906 59.0648 61.4789 59.1727 61.7344C59.2992 62.032 59.7633 63.2156 60.525 64.5469C61.7602 66.7172 62.5172 67.5984 63.1242 67.5984C63.238 67.5971 63.3498 67.5681 63.45 67.5141C64.2422 67.0734 64.0945 64.2492 64.0594 63.6633C64.0594 63.5531 64.057 62.4 63.6516 61.8469C63.3609 61.4461 62.8664 61.2937 62.5664 61.2375C62.6878 61.0699 62.8478 60.9341 63.0328 60.8414C63.5766 60.5695 64.5563 60.5297 65.5289 60.5297H66.0703C67.125 60.5437 67.3969 60.6117 67.7789 60.7078C68.5523 60.893 68.5688 61.3922 68.5008 63.1008C68.4797 63.5859 68.4586 64.1344 68.4586 64.7813C68.4586 64.9219 68.4516 65.0719 68.4516 65.2312C68.4281 66.1008 68.4 67.0875 69.0141 67.493C69.0942 67.5432 69.1867 67.57 69.2813 67.5703C69.4945 67.5703 70.1367 67.5703 71.8758 64.5867C72.4121 63.6264 72.8782 62.6285 73.2703 61.6008C73.3055 61.5398 73.4086 61.3523 73.5305 61.2797C73.6204 61.2338 73.7201 61.2105 73.8211 61.2117H77.9953C78.45 61.2117 78.7617 61.2797 78.8203 61.4555C78.9234 61.7344 78.8016 62.5852 76.8961 65.1656L76.0453 66.2883C74.318 68.5523 74.318 68.6672 76.1531 70.3852V70.3852Z" fill="#D3D3D3"/>
<path d="M67.5 0C55.0734 0 45 10.0734 45 22.5C45 34.9266 55.0734 45 67.5 45C79.9266 45 90 34.9266 90 22.5C90 10.0734 79.9266 0 67.5 0ZM76.1531 25.3852C76.1531 25.3852 78.143 27.3492 78.6328 28.2609C78.6469 28.2797 78.6539 28.2984 78.6586 28.3078C78.8578 28.643 78.9047 28.9031 78.8063 29.0977C78.6422 29.4211 78.0797 29.5805 77.8875 29.5945H74.3719C74.1281 29.5945 73.6172 29.5313 72.9984 29.1047C72.5227 28.7719 72.0539 28.2258 71.5969 27.6937C70.9148 26.9016 70.3242 26.2172 69.7289 26.2172C69.6533 26.2171 69.5781 26.2289 69.5063 26.2523C69.0563 26.3977 68.4797 27.0398 68.4797 28.7508C68.4797 29.2852 68.0578 29.5922 67.7602 29.5922H66.15C65.6016 29.5922 62.7445 29.4 60.2133 26.7305C57.1148 23.4609 54.3258 16.9031 54.3023 16.8422C54.1266 16.418 54.4898 16.1906 54.8859 16.1906H58.4367C58.9102 16.1906 59.0648 16.4789 59.1727 16.7344C59.2992 17.032 59.7633 18.2156 60.525 19.5469C61.7602 21.7172 62.5172 22.5984 63.1242 22.5984C63.238 22.5971 63.3498 22.5681 63.45 22.5141C64.2422 22.0734 64.0945 19.2492 64.0594 18.6633C64.0594 18.5531 64.057 17.4 63.6516 16.8469C63.3609 16.4461 62.8664 16.2937 62.5664 16.2375C62.6878 16.0699 62.8478 15.9341 63.0328 15.8414C63.5766 15.5695 64.5563 15.5297 65.5289 15.5297H66.0703C67.125 15.5437 67.3969 15.6117 67.7789 15.7078C68.5523 15.893 68.5688 16.3922 68.5008 18.1008C68.4797 18.5859 68.4586 19.1344 68.4586 19.7813C68.4586 19.9219 68.4516 20.0719 68.4516 20.2312C68.4281 21.1008 68.4 22.0875 69.0141 22.493C69.0942 22.5432 69.1867 22.57 69.2813 22.5703C69.4945 22.5703 70.1367 22.5703 71.8758 19.5867C72.4121 18.6264 72.8782 17.6285 73.2703 16.6008C73.3055 16.5398 73.4086 16.3523 73.5305 16.2797C73.6204 16.2338 73.7201 16.2105 73.8211 16.2117H77.9953C78.45 16.2117 78.7617 16.2797 78.8203 16.4555C78.9234 16.7344 78.8016 17.5852 76.8961 20.1656L76.0453 21.2883C74.318 23.5523 74.318 23.6672 76.1531 25.3852V25.3852Z" fill="white"/>
<path d="M134.998 67.4258C134.957 55.0325 124.896 45 112.501 45C100.102 45 90.0427 55.0325 90.0022 67.4258L90 67.3673V67.6192L90.0022 67.5675C90.0405 79.963 100.099 90 112.501 90C124.898 90 134.957 79.9675 134.998 67.5742L135 67.6327V67.5112V67.5V67.3673L134.998 67.4258V67.4258ZM106.37 77.7303C100.729 77.7303 96.1446 73.1458 96.1446 67.5023C96.1446 61.8587 100.729 57.2742 106.37 57.2742C109.135 57.2742 111.447 58.2882 113.218 59.9453L110.307 62.7671C109.576 62.0723 108.286 61.2539 106.37 61.2539C102.986 61.2539 100.225 64.0667 100.225 67.5157C100.225 70.9626 102.989 73.7754 106.37 73.7754C110.287 73.7754 111.73 71.0638 111.995 69.4584H106.365V65.6406H115.932C116.08 66.2836 116.191 66.8862 116.191 67.7361C116.191 73.5752 112.274 77.7303 106.37 77.7303V77.7303ZM129.883 68.523H125.793V72.6129H122.726V68.523H118.635V65.4562H122.726V61.364H125.793V65.4562H129.883V68.523Z" fill="#D3D3D3"/>
<path d="M134.998 22.4258C134.957 10.0325 124.896 0 112.501 0C100.102 0 90.0427 10.0325 90.0022 22.4258L90 22.3673V22.6192L90.0022 22.5675C90.0405 34.963 100.099 45 112.501 45C124.898 45 134.957 34.9675 134.998 22.5742L135 22.6327V22.5112V22.5V22.3673L134.998 22.4258V22.4258ZM106.37 32.7303C100.729 32.7303 96.1446 28.1458 96.1446 22.5023C96.1446 16.8587 100.729 12.2742 106.37 12.2742C109.135 12.2742 111.447 13.2882 113.218 14.9453L110.307 17.7671C109.576 17.0723 108.286 16.2539 106.37 16.2539C102.986 16.2539 100.225 19.0667 100.225 22.5157C100.225 25.9626 102.989 28.7754 106.37 28.7754C110.287 28.7754 111.73 26.0638 111.995 24.4584H106.365V20.6406H115.932C116.08 21.2836 116.191 21.8862 116.191 22.7361C116.191 28.5752 112.274 32.7303 106.37 32.7303V32.7303ZM129.883 23.523H125.793V27.6129H122.726V23.523H118.635V20.4562H122.726V16.364H125.793V20.4562H129.883V23.523Z" fill="white"/>
<path d="M157.5 45C145.073 45 135 55.0734 135 67.5C135 79.9266 145.073 90 157.5 90C169.927 90 180 79.9266 180 67.5C180 55.0734 169.927 45 157.5 45ZM162.83 60.5484H159.448C159.047 60.5484 158.602 61.0758 158.602 61.7766V64.2188H162.832L162.192 67.7016H158.602V78.157H154.61V67.7016H150.989V64.2188H154.61V62.1703C154.61 59.2312 156.649 56.843 159.448 56.843H162.83V60.5484V60.5484Z" fill="#D3D3D3"/>
<path d="M157.5 0C145.073 0 135 10.0734 135 22.5C135 34.9266 145.073 45 157.5 45C169.927 45 180 34.9266 180 22.5C180 10.0734 169.927 0 157.5 0ZM162.83 15.5484H159.448C159.047 15.5484 158.602 16.0758 158.602 16.7766V19.2188H162.832L162.192 22.7016H158.602V33.157H154.61V22.7016H150.989V19.2188H154.61V17.1703C154.61 14.2312 156.649 11.843 159.448 11.843H162.83V15.5484V15.5484Z" fill="white"/>
</svg>
