<svg width="20" height="20" viewBox="0 0 20 20" fill="none" xmlns="http://www.w3.org/2000/svg">
<path d="M12.8381 0.11058C12.2062 0.0580804 11.6081 0.18558 11.0225 0.501205C10.2375 0.91808 9.68061 1.56183 9.42686 2.39871V2.45371L9.39748 2.65308L9.28748 2.45371L9.00748 1.95308C8.56061 1.25621 8.00436 0.836205 7.30498 0.641205C6.69248 0.503705 6.18811 0.55933 5.65748 0.84308C5.07186 1.20371 4.73686 1.76371 4.59686 2.54558C4.45686 3.35558 4.59686 4.13746 5.01686 4.91808L5.21186 5.19808L4.53748 4.97746C3.70061 4.77808 2.91998 4.88933 2.13498 5.30933C1.32811 5.72621 0.823109 6.31183 0.491859 7.12621C0.182484 7.90683 0.211859 8.66308 0.602484 9.35871C0.768109 9.66871 1.02248 9.91558 1.24311 10.0856C1.57873 10.4206 1.99811 10.6156 2.49998 10.7006L2.69498 10.7525L2.27811 11.1206C1.88498 11.4525 1.66311 11.8725 1.52311 12.2887C1.45093 12.5355 1.43099 12.7946 1.46457 13.0496C1.49814 13.3045 1.58449 13.5496 1.71811 13.7693C1.86123 13.9943 1.99811 14.1893 2.21998 14.3293C2.44498 14.525 2.72498 14.665 3.05998 14.6943C3.70636 14.8472 4.38246 14.8178 5.01311 14.6093L4.51123 15.4462L4.37123 15.8112C4.09123 16.7062 4.17623 17.4837 4.59623 18.2943C4.79123 18.6037 5.01311 18.8837 5.23686 19.1343C5.56936 19.44 5.99186 19.635 6.49686 19.775C7.33373 20 8.16998 19.9743 8.97686 19.5543C9.76186 19.1343 10.2625 18.46 10.5169 17.6237L10.5425 17.4581C11.0731 18.0437 11.575 18.435 12.1344 18.575C12.6944 18.7443 13.2512 18.7181 13.7562 18.38C14.2312 18.1031 14.5662 17.6243 14.7362 17.0381C14.8762 16.4231 14.8762 15.8112 14.7362 15.1112C15.0131 15.3062 15.2931 15.4462 15.6281 15.5312C16.5231 15.8112 17.305 15.7818 18.0856 15.3656C18.8406 14.9456 19.3425 14.275 19.5962 13.4087C19.8169 12.5718 19.7619 11.7612 19.3456 10.9768L19.2025 10.7518C18.9806 10.4168 18.7569 10.0818 18.4206 9.85996C18.1412 9.66496 17.8056 9.52496 17.5 9.38496C18.3656 8.96496 18.9806 8.37933 19.2575 7.62308C19.4569 7.00808 19.4006 6.50746 19.1175 6.00246V5.94746C18.7825 5.39058 18.34 5.02558 17.64 4.83058C17.22 4.74871 16.7481 4.74558 16.3281 4.77496L15.4031 4.97058L15.7125 4.27371C15.9925 3.37871 15.9081 2.51308 15.4331 1.70183L15.3512 1.55871C14.9312 0.86183 14.3162 0.44183 13.4794 0.221205C13.2691 0.165498 13.0543 0.128479 12.8375 0.11058H12.8381ZM12.3631 1.28933C12.6331 1.26371 12.9031 1.29933 13.1706 1.39683C13.7562 1.53683 14.1762 1.84246 14.4262 2.31746V2.32058C14.5662 2.59746 14.6481 2.93308 14.6481 3.29746L14.5662 3.91246C14.4562 4.21808 14.3162 4.49808 14.1469 4.74933L11.6337 7.82246C11.3831 7.62683 11.1031 7.48683 10.8231 7.34683L10.5431 4.18933L10.5175 3.07371L10.5431 2.79371C10.6831 2.23683 11.0737 1.81683 11.5756 1.53683C11.8182 1.40074 12.0863 1.31646 12.3631 1.28933ZM6.62748 1.73808C6.73811 1.73121 6.85811 1.76058 6.96936 1.81621C7.47123 1.95621 7.89123 2.31683 8.22623 3.01683C8.36623 3.29683 8.50623 3.57371 8.56123 3.90871L9.12123 7.20621L8.70123 7.34621L6.21436 4.63808L6.07436 4.35808C5.84998 3.85746 5.71248 3.38246 5.76873 2.87746C5.79436 2.37683 5.99061 2.04058 6.32561 1.84558C6.41081 1.7777 6.51607 1.73991 6.62498 1.73808H6.62748ZM16.735 5.93058C16.8619 5.93058 16.9825 5.93746 17.1094 5.95058C17.585 6.00871 17.92 6.23058 18.0862 6.56871L18.2006 6.92621L18.145 7.20621C17.95 7.71121 17.53 8.10183 16.83 8.40808C16.5531 8.54808 16.2444 8.60308 15.9125 8.65871L12.475 9.07871L12.4194 8.88308L12.3644 8.79871L12.475 8.65871L15.2969 6.31121L15.6325 6.17433V6.17121C15.9807 6.01493 16.3577 5.93298 16.7394 5.93058H16.735ZM3.85061 6.08433C3.98373 6.09121 4.12061 6.10996 4.26061 6.14621V6.14933L5.01623 6.45183L7.47373 8.24246C7.24873 8.52246 7.11186 8.80183 7.02811 9.07933L3.00373 9.58371L2.72686 9.52871C2.22248 9.44371 1.88748 9.21871 1.66248 8.80183C1.43811 8.38246 1.44061 7.96621 1.60748 7.54621C1.80248 7.01558 2.16748 6.59558 2.69436 6.37121C3.07248 6.16308 3.44998 6.06121 3.84998 6.08433H3.85061ZM9.81748 8.32308C10.3225 8.32308 10.7975 8.52246 11.1031 8.82808C11.4975 9.21808 11.6631 9.63808 11.6631 10.1431C11.6631 10.6437 11.4975 11.12 11.1031 11.4512C10.7425 11.8162 10.3225 12.0112 9.81748 12.0112C9.28998 12.0112 8.84436 11.8162 8.50936 11.4512C8.14436 11.1193 7.94936 10.6437 7.94936 10.1431C7.94936 9.63808 8.14436 9.21808 8.50936 8.82808C8.86594 8.49811 9.33544 8.31738 9.82123 8.32308H9.81748ZM16.8294 10.475L17.1094 10.5043C17.5294 10.6443 17.9237 10.895 18.1444 11.3118C18.4244 11.6212 18.5644 12.0412 18.5644 12.5168L18.48 13.0737C18.34 13.6331 18.0044 14.0493 17.5294 14.2743C17.0287 14.5543 16.5237 14.6093 15.9669 14.4143C15.6319 14.3325 15.4069 14.1925 15.2119 13.9687L12.2787 11.5368L12.4744 11.12L12.5587 10.7818L15.7162 10.5043L16.8331 10.475H16.8294ZM11.3019 12.5168L12.4744 13.7143L13.2 14.6093L13.34 14.8893C13.5906 15.365 13.7306 15.8112 13.6719 16.3412C13.62 16.8431 13.4512 17.2068 13.115 17.3468C12.92 17.4868 12.695 17.4868 12.4744 17.4575C11.9437 17.3206 11.5237 16.9006 11.2175 16.2306L10.8825 15.3087L10.4625 12.8768L10.9344 12.7112L11.2994 12.5162L11.3019 12.5168ZM8.28436 12.5718C8.56123 12.7118 8.84123 12.8518 9.14998 12.8775C9.20679 13.8947 9.29914 14.9097 9.42686 15.9206V17.0406L9.40123 17.3175C9.20311 17.8225 8.86811 18.2425 8.36623 18.4631C7.86561 18.7431 7.33436 18.7987 6.82936 18.6587C6.26936 18.5218 5.85248 18.1831 5.62873 17.7368C5.48873 17.4568 5.37436 17.1218 5.37436 16.7868L5.51748 16.145C5.57311 15.865 5.71248 15.5881 5.93748 15.3643L8.28436 12.5718Z" fill="white"/>
</svg>
