<svg width="16" height="16" viewBox="0 0 16 16" fill="none" xmlns="http://www.w3.org/2000/svg">
<path d="M8.08331 0.583252C3.94331 0.583252 0.583313 3.94325 0.583313 8.08325C0.583313 12.2233 3.94331 15.5833 8.08331 15.5833H11.8333V14.0833H8.08331C4.82831 14.0833 2.08331 11.3383 2.08331 8.08325C2.08331 4.82825 4.82831 2.08325 8.08331 2.08325C11.3383 2.08325 14.0833 4.82825 14.0833 8.08325V9.15575C14.0833 9.74825 13.5508 10.3333 12.9583 10.3333C12.3658 10.3333 11.8333 9.74825 11.8333 9.15575V8.08325C11.8333 6.01325 10.1533 4.33325 8.08331 4.33325C6.01331 4.33325 4.33331 6.01325 4.33331 8.08325C4.33331 10.1533 6.01331 11.8333 8.08331 11.8333C9.11831 11.8333 10.0633 11.4133 10.7383 10.7308C11.2258 11.3983 12.0658 11.8333 12.9583 11.8333C14.4358 11.8333 15.5833 10.6333 15.5833 9.15575V8.08325C15.5833 3.94325 12.2233 0.583252 8.08331 0.583252ZM8.08331 10.3333C6.83831 10.3333 5.83331 9.32825 5.83331 8.08325C5.83331 6.83825 6.83831 5.83325 8.08331 5.83325C9.32831 5.83325 10.3333 6.83825 10.3333 8.08325C10.3333 9.32825 9.32831 10.3333 8.08331 10.3333Z" fill="white"/>
</svg>
