<svg width="19" height="19" viewBox="0 0 19 19" fill="none" xmlns="http://www.w3.org/2000/svg">
<path d="M14.2314 10.2687C14.1464 10.1835 14.0454 10.1159 13.9342 10.0698C13.823 10.0237 13.7037 9.99992 13.5834 9.99992C13.463 9.99992 13.3438 10.0237 13.2326 10.0698C13.1213 10.1159 13.0203 10.1835 12.9353 10.2687L11.4741 11.7299C10.7967 11.5282 9.5326 11.0699 8.73144 10.2687C7.93027 9.46752 7.47194 8.20344 7.27027 7.52602L8.73144 6.06485C8.81664 5.9798 8.88423 5.87878 8.93035 5.76757C8.97647 5.65637 9.00021 5.53716 9.00021 5.41677C9.00021 5.29638 8.97647 5.17717 8.93035 5.06597C8.88423 4.95476 8.81664 4.85374 8.73144 4.76869L5.06477 1.10202C4.97972 1.01682 4.8787 0.949226 4.76749 0.903108C4.65628 0.85699 4.53708 0.833252 4.41669 0.833252C4.2963 0.833252 4.17709 0.85699 4.06589 0.903108C3.95468 0.949226 3.85366 1.01682 3.7686 1.10202L1.2826 3.58802C0.934271 3.93635 0.738104 4.41485 0.745438 4.90344C0.766521 6.20877 1.1121 10.7426 4.68527 14.3158C8.25844 17.8889 12.7923 18.2336 14.0985 18.2556H14.1242C14.6082 18.2556 15.0656 18.0649 15.4121 17.7184L17.8981 15.2324C17.9833 15.1474 18.0509 15.0464 18.097 14.9352C18.1431 14.824 18.1669 14.7047 18.1669 14.5844C18.1669 14.464 18.1431 14.3448 18.097 14.2336C18.0509 14.1223 17.9833 14.0213 17.8981 13.9363L14.2314 10.2687ZM14.115 16.4214C12.971 16.4021 9.05685 16.095 5.98144 13.0187C2.89594 9.93319 2.5971 6.00527 2.57877 4.88419L4.41669 3.04627L6.78719 5.41677L5.60194 6.60202C5.49419 6.70968 5.41498 6.8425 5.37144 6.98846C5.32791 7.13442 5.32144 7.28893 5.3526 7.43802C5.3746 7.54344 5.91269 10.0432 7.43435 11.5649C8.95602 13.0865 11.4558 13.6246 11.5612 13.6466C11.7102 13.6786 11.8649 13.6727 12.0109 13.6293C12.157 13.5859 12.2899 13.5064 12.3972 13.3982L13.5834 12.2129L15.9539 14.5834L14.115 16.4214Z" fill="white"/>
</svg>
