<svg width="16" height="16" viewBox="0 0 16 16" fill="none" xmlns="http://www.w3.org/2000/svg">
<path d="M15.0723 9.09375C15.1524 8.6543 15.1953 8.20508 15.1953 7.75586C15.1953 6.75977 15 5.79297 14.6153 4.88477C14.2442 4.00586 13.711 3.2168 13.0332 2.53906C12.3612 1.86528 11.5645 1.32862 10.6875 0.958984C9.77737 0.574219 8.81252 0.378906 7.81643 0.378906C7.34768 0.378906 6.87697 0.423828 6.41994 0.511719C5.78755 0.176608 5.0829 0.000949597 4.36721 0C3.20119 0 2.10353 0.455078 1.27931 1.2793C0.872597 1.68392 0.550125 2.16516 0.330541 2.69518C0.110956 3.22519 -0.00138471 3.79348 1.28815e-05 4.36719C1.28815e-05 5.10938 0.191419 5.83984 0.548842 6.48438C0.476576 6.90234 0.437513 7.33008 0.437513 7.75586C0.437513 8.75195 0.632826 9.71875 1.01759 10.627C1.38869 11.5059 1.91994 12.2949 2.59767 12.9727C3.27541 13.6504 4.06447 14.1816 4.94338 14.5527C5.85353 14.9375 6.81838 15.1328 7.81447 15.1328C8.24807 15.1328 8.68166 15.0938 9.10744 15.0176C9.76174 15.3867 10.5 15.584 11.2559 15.584C12.4219 15.584 13.5196 15.1309 14.3438 14.3047C15.17 13.4805 15.6231 12.3828 15.6231 11.2168C15.625 10.4746 15.4336 9.74219 15.0723 9.09375ZM7.84572 12.2754C5.22463 12.2754 4.05275 10.9863 4.05275 10.0215C4.05275 9.52539 4.41799 9.17969 4.92189 9.17969C6.04299 9.17969 5.75393 10.791 7.84572 10.791C8.91799 10.791 9.50979 10.209 9.50979 9.61328C9.50979 9.25586 9.33401 8.85742 8.62698 8.68359L6.29494 8.10156C4.41799 7.63086 4.07619 6.61523 4.07619 5.66211C4.07619 3.68164 5.94143 2.9375 7.69338 2.9375C9.30666 2.9375 11.209 3.83008 11.209 5.01758C11.209 5.52734 10.7676 5.82227 10.2637 5.82227C9.30666 5.82227 9.48244 4.49805 7.55471 4.49805C6.59768 4.49805 6.06838 4.93164 6.06838 5.55078C6.06838 6.16992 6.82424 6.36719 7.48049 6.51758L9.20705 6.90039C11.0977 7.32227 11.5762 8.42578 11.5762 9.46484C11.5762 11.0723 10.3399 12.2754 7.84572 12.2754Z" fill="white"/>
</svg>
