<svg width="45" height="45" viewBox="0 0 45 45" fill="none" xmlns="http://www.w3.org/2000/svg">
<path d="M22.5 0.1875C10.1783 0.1875 0.1875 10.1783 0.1875 22.5C0.1875 34.8217 10.1783 44.8125 22.5 44.8125C34.8217 44.8125 44.8125 34.8217 44.8125 22.5C44.8125 10.1783 34.8217 0.1875 22.5 0.1875ZM33.2229 17.0065C33.2379 17.2406 33.2379 17.4847 33.2379 17.7237C33.2379 25.0351 27.6697 33.457 17.4946 33.457C14.3569 33.457 11.4483 32.5456 8.99795 30.9768C9.44619 31.0266 9.87451 31.0465 10.3327 31.0465C12.9226 31.0465 15.3032 30.1699 17.2008 28.6857C14.7703 28.6359 12.7283 27.0422 12.0311 24.8508C12.8827 24.9753 13.6497 24.9753 14.5263 24.7512C13.2748 24.4969 12.15 23.8172 11.3428 22.8276C10.5357 21.838 10.0961 20.5995 10.0986 19.3225V19.2527C10.8308 19.6661 11.6924 19.9201 12.5938 19.955C11.836 19.4499 11.2145 18.7657 10.7845 17.9629C10.3545 17.1602 10.1291 16.2637 10.1285 15.353C10.1285 14.3221 10.3975 13.3808 10.8806 12.564C12.2696 14.2739 14.003 15.6725 15.9679 16.6687C17.9329 17.6649 20.0855 18.2365 22.2858 18.3463C21.5039 14.586 24.3129 11.543 27.6896 11.543C29.2834 11.543 30.7178 12.2104 31.7288 13.2861C32.9789 13.0521 34.1742 12.5839 35.24 11.9563C34.8267 13.2363 33.9601 14.3171 32.8096 14.9994C33.9252 14.8799 35.001 14.5711 35.9971 14.1378C35.245 15.2435 34.3037 16.2246 33.2229 17.0065Z" fill="white"/>
</svg>
