<svg width="46" height="46" viewBox="0 0 46 46" fill="none" xmlns="http://www.w3.org/2000/svg">
<path d="M22.9999 0.919922C10.8053 0.919922 0.919922 10.8053 0.919922 22.9999C0.919922 35.1945 10.8053 45.0799 22.9999 45.0799C35.1945 45.0799 45.0799 35.1945 45.0799 22.9999C45.0799 10.8053 35.1945 0.919922 22.9999 0.919922ZM31.4915 25.8312C31.4915 25.8312 33.4442 27.7586 33.9249 28.6533C33.9387 28.6717 33.9456 28.6901 33.9502 28.6993C34.1457 29.0282 34.1917 29.2835 34.0951 29.4744C33.9341 29.7918 33.3821 29.9482 33.1935 29.962H29.7435C29.5043 29.962 29.0029 29.8999 28.3957 29.4813C27.9288 29.1547 27.4688 28.6188 27.0203 28.0967C26.351 27.3193 25.7714 26.6477 25.1872 26.6477C25.113 26.6476 25.0393 26.6592 24.9687 26.6822C24.5271 26.8248 23.9613 27.455 23.9613 29.134C23.9613 29.6584 23.5473 29.9597 23.2552 29.9597H21.6751C21.1369 29.9597 18.3332 29.7711 15.8492 27.1514C12.8086 23.9429 10.0716 17.5075 10.0486 17.4477C9.87612 17.0314 10.2326 16.8083 10.6213 16.8083H14.1058C14.5704 16.8083 14.7222 17.0912 14.828 17.3419C14.9522 17.634 15.4076 18.7955 16.1551 20.1019C17.3672 22.2317 18.1101 23.0965 18.7058 23.0965C18.8175 23.0952 18.9272 23.0668 19.0255 23.0137C19.8029 22.5813 19.658 19.8098 19.6235 19.2348C19.6235 19.1267 19.6212 17.9951 19.2233 17.4523C18.9381 17.059 18.4528 16.9095 18.1584 16.8543C18.2776 16.6899 18.4346 16.5566 18.6161 16.4656C19.1497 16.1988 20.1111 16.1597 21.0656 16.1597H21.5969C22.6319 16.1735 22.8987 16.2402 23.2736 16.3345C24.0326 16.5162 24.0487 17.0061 23.982 18.6828C23.9613 19.1589 23.9406 19.6971 23.9406 20.3319C23.9406 20.4699 23.9337 20.6171 23.9337 20.7735C23.9107 21.6268 23.8831 22.5951 24.4857 22.993C24.5643 23.0423 24.6551 23.0686 24.7479 23.0689C24.9572 23.0689 25.5874 23.0689 27.294 20.141C27.8203 19.1986 28.2777 18.2193 28.6625 17.2108C28.697 17.151 28.7982 16.967 28.9178 16.8957C29.0061 16.8507 29.104 16.8278 29.203 16.829H33.2993C33.7455 16.829 34.0514 16.8957 34.1089 17.0682C34.2101 17.3419 34.0905 18.1768 32.2206 20.7091L31.3857 21.8108C29.6906 24.0326 29.6906 24.1453 31.4915 25.8312Z" fill="white"/>
</svg>
